<?xml version="1.0" encoding="UTF-8" standalone="no"?>
<!DOCTYPE svg PUBLIC "-//W3C//DTD SVG 1.1//EN"
 "http://www.w3.org/Graphics/SVG/1.1/DTD/svg11.dtd">
<!-- Generated by graphviz version 2.40.1 (20161225.0304)
 -->
<!-- Title: dependencies Pages: 1 -->
<svg width="3635pt" height="349pt"
 viewBox="0.00 0.00 3635.00 349.00" xmlns="http://www.w3.org/2000/svg" xmlns:xlink="http://www.w3.org/1999/xlink">
<g id="graph0" class="graph" transform="scale(1 1) rotate(0) translate(4 345)">
<title>dependencies</title>
<polygon fill="#ffffff" stroke="transparent" points="-4,4 -4,-345 3631,-345 3631,4 -4,4"/>
<text text-anchor="start" x="1792.5091" y="-42.4" font-family="sans-serif" font-weight="bold" font-size="14.00" fill="#000000">Legend</text>
<polygon fill="#ffffb3" stroke="transparent" points="1579.5,-10 1579.5,-30 1599.5,-30 1599.5,-10 1579.5,-10"/>
<text text-anchor="start" x="1603.129" y="-15.4" font-family="sans-serif" font-size="14.00" fill="#000000"> &#160;Declarations</text>
<polygon fill="#8dd3c7" stroke="transparent" points="1692.5,-10 1692.5,-30 1712.5,-30 1712.5,-10 1692.5,-10"/>
<text text-anchor="start" x="1716.2251" y="-15.4" font-family="sans-serif" font-size="14.00" fill="#000000"> &#160;Module</text>
<polygon fill="#80b1d3" stroke="transparent" points="1778.5,-10 1778.5,-30 1798.5,-30 1798.5,-10 1778.5,-10"/>
<text text-anchor="start" x="1802.2812" y="-15.4" font-family="sans-serif" font-size="14.00" fill="#000000"> &#160;Bootstrap</text>
<polygon fill="#fdb462" stroke="transparent" points="1875.5,-10 1875.5,-30 1895.5,-30 1895.5,-10 1875.5,-10"/>
<text text-anchor="start" x="1899.1732" y="-15.4" font-family="sans-serif" font-size="14.00" fill="#000000"> &#160;Providers</text>
<polygon fill="#fb8072" stroke="transparent" points="1971.5,-10 1971.5,-30 1991.5,-30 1991.5,-10 1971.5,-10"/>
<text text-anchor="start" x="1995.2258" y="-15.4" font-family="sans-serif" font-size="14.00" fill="#000000"> &#160;Exports</text>
<g id="clust1" class="cluster">
<title>cluster_AppModule</title>
<polygon fill="none" stroke="#000000" stroke-dasharray="1,5" points="1604,-70 1604,-333 3619,-333 3619,-70 1604,-70"/>
</g>
<g id="clust2" class="cluster">
<title>cluster_AppModule_declarations</title>
<polygon fill="none" stroke="#000000" points="2713,-143 2713,-195 3611,-195 3611,-143 2713,-143"/>
</g>
<g id="clust4" class="cluster">
<title>cluster_AppModule_CaptchaComponent_providers</title>
<polygon fill="none" stroke="#000000" points="2719,-78 2719,-130 2851,-130 2851,-78 2719,-78"/>
</g>
<g id="clust5" class="cluster">
<title>cluster_AppModule_imports</title>
<polygon fill="none" stroke="#000000" points="1612,-143 1612,-195 2249,-195 2249,-143 1612,-143"/>
</g>
<g id="clust7" class="cluster">
<title>cluster_AppModule_bootstrap</title>
<polygon fill="none" stroke="#000000" points="2174,-273 2174,-325 2807,-325 2807,-273 2174,-273"/>
</g>
<g id="clust8" class="cluster">
<title>cluster_AppModule_providers</title>
<polygon fill="none" stroke="#000000" points="2257,-143 2257,-195 2705,-195 2705,-143 2257,-143"/>
</g>
<g id="clust9" class="cluster">
<title>cluster_Ng2CompleterModule</title>
<polygon fill="none" stroke="#000000" stroke-dasharray="1,5" points="8,-70 8,-333 1596,-333 1596,-70 8,-70"/>
</g>
<g id="clust10" class="cluster">
<title>cluster_Ng2CompleterModule_declarations</title>
<polygon fill="none" stroke="#000000" points="846,-143 846,-195 1588,-195 1588,-143 846,-143"/>
</g>
<g id="clust17" class="cluster">
<title>cluster_Ng2CompleterModule_CompleterCmp_providers</title>
<polygon fill="none" stroke="#000000" points="1076,-78 1076,-130 1514,-130 1514,-78 1076,-78"/>
</g>
<g id="clust18" class="cluster">
<title>cluster_Ng2CompleterModule_imports</title>
<polygon fill="none" stroke="#000000" points="710,-143 710,-195 838,-195 838,-143 710,-143"/>
</g>
<g id="clust19" class="cluster">
<title>cluster_Ng2CompleterModule_exports</title>
<polygon fill="none" stroke="#000000" points="817,-273 817,-325 1585,-325 1585,-273 817,-273"/>
</g>
<g id="clust21" class="cluster">
<title>cluster_Ng2CompleterModule_providers</title>
<polygon fill="none" stroke="#000000" points="16,-143 16,-195 702,-195 702,-143 16,-143"/>
</g>
<!-- AppComponent -->
<g id="node1" class="node">
<title>AppComponent</title>
<polygon fill="#ffffb3" stroke="#000000" points="2971.9399,-187 2866.0601,-187 2866.0601,-151 2971.9399,-151 2971.9399,-187"/>
<text text-anchor="middle" x="2919" y="-164.8" font-family="Times,serif" font-size="14.00" fill="#000000">AppComponent</text>
</g>
<!-- AppModule -->
<g id="node3" class="node">
<title>AppModule</title>
<polygon fill="#8dd3c7" stroke="#000000" points="2522.6571,-252 2519.6571,-256 2498.6571,-256 2495.6571,-252 2439.3429,-252 2439.3429,-216 2522.6571,-216 2522.6571,-252"/>
<text text-anchor="middle" x="2481" y="-229.8" font-family="Times,serif" font-size="14.00" fill="#000000">AppModule</text>
</g>
<!-- AppComponent&#45;&gt;AppModule -->
<g id="edge1" class="edge">
<title>AppComponent&#45;&gt;AppModule</title>
<path fill="none" stroke="#000000" d="M2919,-187.027C2919,-203.3976 2919,-225 2919,-225 2919,-225 2532.9973,-225 2532.9973,-225"/>
<polygon fill="#000000" stroke="#000000" points="2532.9973,-221.5001 2522.9973,-225 2532.9972,-228.5001 2532.9973,-221.5001"/>
</g>
<!-- CaptchaComponent -->
<g id="node2" class="node">
<title>CaptchaComponent</title>
<polygon fill="#ffffb3" stroke="#000000" points="2848.7036,-187 2721.2964,-187 2721.2964,-151 2848.7036,-151 2848.7036,-187"/>
<text text-anchor="middle" x="2785" y="-164.8" font-family="Times,serif" font-size="14.00" fill="#000000">CaptchaComponent</text>
</g>
<!-- CaptchaComponent&#45;&gt;AppModule -->
<g id="edge2" class="edge">
<title>CaptchaComponent&#45;&gt;AppModule</title>
<path fill="none" stroke="#000000" d="M2760.3473,-187.1871C2760.3473,-202.1824 2760.3473,-221 2760.3473,-221 2760.3473,-221 2532.8211,-221 2532.8211,-221"/>
<polygon fill="#000000" stroke="#000000" points="2532.8211,-217.5001 2522.8211,-221 2532.8211,-224.5001 2532.8211,-217.5001"/>
</g>
<!-- AppComponent  -->
<g id="node8" class="node">
<title>AppComponent </title>
<polygon fill="#80b1d3" stroke="#000000" points="2461.439,-317 2352.561,-317 2352.561,-281 2461.439,-281 2461.439,-317"/>
<text text-anchor="middle" x="2407" y="-294.8" font-family="Times,serif" font-size="14.00" fill="#000000">AppComponent </text>
</g>
<!-- AppModule&#45;&gt;AppComponent  -->
<g id="edge7" class="edge">
<title>AppModule&#45;&gt;AppComponent </title>
<path fill="none" stroke="#000000" stroke-dasharray="1,5" d="M2450.3207,-252.1061C2450.3207,-252.1061 2450.3207,-270.991 2450.3207,-270.991"/>
<polygon fill="#000000" stroke="#000000" points="2446.8207,-270.9909 2450.3207,-280.991 2453.8207,-270.991 2446.8207,-270.9909"/>
</g>
<!-- CoreHeaderComponent  -->
<g id="node35" class="node">
<title>CoreHeaderComponent </title>
<polygon fill="#80b1d3" stroke="#000000" points="2334.4559,-317 2181.5441,-317 2181.5441,-281 2334.4559,-281 2334.4559,-317"/>
<text text-anchor="middle" x="2258" y="-294.8" font-family="Times,serif" font-size="14.00" fill="#000000">CoreHeaderComponent </text>
</g>
<!-- AppModule&#45;&gt;CoreHeaderComponent  -->
<g id="edge36" class="edge">
<title>AppModule&#45;&gt;CoreHeaderComponent </title>
<path fill="none" stroke="#000000" stroke-dasharray="1,5" d="M2438.9208,-232C2385.3251,-232 2299.5721,-232 2299.5721,-232 2299.5721,-232 2299.5721,-270.692 2299.5721,-270.692"/>
<polygon fill="#000000" stroke="#000000" points="2296.0722,-270.6919 2299.5721,-280.692 2303.0722,-270.692 2296.0722,-270.6919"/>
</g>
<!-- CoreFooterComponent  -->
<g id="node36" class="node">
<title>CoreFooterComponent </title>
<polygon fill="#80b1d3" stroke="#000000" points="2799.0932,-317 2650.9068,-317 2650.9068,-281 2799.0932,-281 2799.0932,-317"/>
<text text-anchor="middle" x="2725" y="-294.8" font-family="Times,serif" font-size="14.00" fill="#000000">CoreFooterComponent </text>
</g>
<!-- AppModule&#45;&gt;CoreFooterComponent  -->
<g id="edge37" class="edge">
<title>AppModule&#45;&gt;CoreFooterComponent </title>
<path fill="none" stroke="#000000" stroke-dasharray="1,5" d="M2522.855,-248C2579.5866,-248 2673.8935,-248 2673.8935,-248 2673.8935,-248 2673.8935,-270.8757 2673.8935,-270.8757"/>
<polygon fill="#000000" stroke="#000000" points="2670.3936,-270.8757 2673.8935,-280.8757 2677.3936,-270.8757 2670.3936,-270.8757"/>
</g>
<!-- GeneralAppComponent  -->
<g id="node37" class="node">
<title>GeneralAppComponent </title>
<polygon fill="#80b1d3" stroke="#000000" points="2632.7408,-317 2479.2592,-317 2479.2592,-281 2632.7408,-281 2632.7408,-317"/>
<text text-anchor="middle" x="2556" y="-294.8" font-family="Times,serif" font-size="14.00" fill="#000000">GeneralAppComponent </text>
</g>
<!-- AppModule&#45;&gt;GeneralAppComponent  -->
<g id="edge38" class="edge">
<title>AppModule&#45;&gt;GeneralAppComponent </title>
<path fill="none" stroke="#000000" stroke-dasharray="1,5" d="M2501.1039,-252.1061C2501.1039,-252.1061 2501.1039,-270.991 2501.1039,-270.991"/>
<polygon fill="#000000" stroke="#000000" points="2497.604,-270.9909 2501.1039,-280.991 2504.604,-270.991 2497.604,-270.9909"/>
</g>
<!-- DataService -->
<g id="node4" class="node">
<title>DataService</title>
<ellipse fill="#fdb462" stroke="#000000" cx="2785" cy="-104" rx="58.4415" ry="18"/>
<text text-anchor="middle" x="2785" y="-99.8" font-family="Times,serif" font-size="14.00" fill="#000000">DataService</text>
</g>
<!-- DataService&#45;&gt;CaptchaComponent -->
<g id="edge3" class="edge">
<title>DataService&#45;&gt;CaptchaComponent</title>
<path fill="none" stroke="#000000" d="M2785,-122.1061C2785,-122.1061 2785,-140.991 2785,-140.991"/>
<polygon fill="#000000" stroke="#000000" points="2781.5001,-140.9909 2785,-150.991 2788.5001,-140.991 2781.5001,-140.9909"/>
</g>
<!-- BrowserModule -->
<g id="node5" class="node">
<title>BrowserModule</title>
<polygon fill="#8dd3c7" stroke="#000000" points="2045.4734,-187 2042.4734,-191 2021.4734,-191 2018.4734,-187 1938.5266,-187 1938.5266,-151 2045.4734,-151 2045.4734,-187"/>
<text text-anchor="middle" x="1992" y="-164.8" font-family="Times,serif" font-size="14.00" fill="#000000">BrowserModule</text>
</g>
<!-- BrowserModule&#45;&gt;AppModule -->
<g id="edge4" class="edge">
<title>BrowserModule&#45;&gt;AppModule</title>
<path fill="none" stroke="#000000" d="M2009.8289,-187.1871C2009.8289,-202.1824 2009.8289,-221 2009.8289,-221 2009.8289,-221 2429.1867,-221 2429.1867,-221"/>
<polygon fill="#000000" stroke="#000000" points="2429.1867,-224.5001 2439.1867,-221 2429.1867,-217.5001 2429.1867,-224.5001"/>
</g>
<!-- BrowserModule&#45;&gt;AppModule -->
<g id="edge33" class="edge">
<title>BrowserModule&#45;&gt;AppModule</title>
<path fill="none" stroke="#000000" d="M1974.1711,-187.2819C1974.1711,-202.9478 1974.1711,-223 1974.1711,-223 1974.1711,-223 2429.0929,-223 2429.0929,-223"/>
<polygon fill="#000000" stroke="#000000" points="2429.0929,-226.5001 2439.0929,-223 2429.0928,-219.5001 2429.0929,-226.5001"/>
</g>
<!-- FormsModule -->
<g id="node6" class="node">
<title>FormsModule</title>
<polygon fill="#8dd3c7" stroke="#000000" points="1715.8288,-187 1712.8288,-191 1691.8288,-191 1688.8288,-187 1620.1712,-187 1620.1712,-151 1715.8288,-151 1715.8288,-187"/>
<text text-anchor="middle" x="1668" y="-164.8" font-family="Times,serif" font-size="14.00" fill="#000000">FormsModule</text>
</g>
<!-- FormsModule&#45;&gt;AppModule -->
<g id="edge5" class="edge">
<title>FormsModule&#45;&gt;AppModule</title>
<path fill="none" stroke="#000000" d="M1683.888,-187.302C1683.888,-205.2699 1683.888,-230 1683.888,-230 1683.888,-230 2429.2661,-230 2429.2661,-230"/>
<polygon fill="#000000" stroke="#000000" points="2429.2661,-233.5001 2439.2661,-230 2429.2661,-226.5001 2429.2661,-233.5001"/>
</g>
<!-- Ng2CompleterModule -->
<g id="node16" class="node">
<title>Ng2CompleterModule</title>
<polygon fill="#8dd3c7" stroke="#000000" points="1222.2548,-252 1219.2548,-256 1198.2548,-256 1195.2548,-252 1079.7452,-252 1079.7452,-216 1222.2548,-216 1222.2548,-252"/>
<text text-anchor="middle" x="1151" y="-229.8" font-family="Times,serif" font-size="14.00" fill="#000000">Ng2CompleterModule</text>
</g>
<!-- FormsModule&#45;&gt;Ng2CompleterModule -->
<g id="edge17" class="edge">
<title>FormsModule&#45;&gt;Ng2CompleterModule</title>
<path fill="none" stroke="#000000" d="M1652.112,-187.2921C1652.112,-209.2057 1652.112,-243 1652.112,-243 1652.112,-243 1232.2649,-243 1232.2649,-243"/>
<polygon fill="#000000" stroke="#000000" points="1232.265,-239.5001 1222.2649,-243 1232.2649,-246.5001 1232.265,-239.5001"/>
</g>
<!-- HttpModule -->
<g id="node7" class="node">
<title>HttpModule</title>
<polygon fill="#8dd3c7" stroke="#000000" points="1818.4387,-187 1815.4387,-191 1794.4387,-191 1791.4387,-187 1733.5613,-187 1733.5613,-151 1818.4387,-151 1818.4387,-187"/>
<text text-anchor="middle" x="1776" y="-164.8" font-family="Times,serif" font-size="14.00" fill="#000000">HttpModule</text>
</g>
<!-- HttpModule&#45;&gt;AppModule -->
<g id="edge6" class="edge">
<title>HttpModule&#45;&gt;AppModule</title>
<path fill="none" stroke="#000000" d="M1790.0729,-187.0225C1790.0729,-204.3734 1790.0729,-228 1790.0729,-228 1790.0729,-228 2429.3354,-228 2429.3354,-228"/>
<polygon fill="#000000" stroke="#000000" points="2429.3354,-231.5001 2439.3354,-228 2429.3353,-224.5001 2429.3354,-231.5001"/>
</g>
<!-- HttpModule&#45;&gt;Ng2CompleterModule -->
<g id="edge18" class="edge">
<title>HttpModule&#45;&gt;Ng2CompleterModule</title>
<path fill="none" stroke="#000000" d="M1761.9271,-187.2479C1761.9271,-210.0179 1761.9271,-246 1761.9271,-246 1761.9271,-246 1232.2768,-246 1232.2768,-246"/>
<polygon fill="#000000" stroke="#000000" points="1232.2768,-242.5001 1222.2768,-246 1232.2767,-249.5001 1232.2768,-242.5001"/>
</g>
<!-- CompleterListItemCmp -->
<g id="node9" class="node">
<title>CompleterListItemCmp</title>
<polygon fill="#ffffb3" stroke="#000000" points="1225.7604,-187 1076.2396,-187 1076.2396,-151 1225.7604,-151 1225.7604,-187"/>
<text text-anchor="middle" x="1151" y="-164.8" font-family="Times,serif" font-size="14.00" fill="#000000">CompleterListItemCmp</text>
</g>
<!-- CompleterListItemCmp&#45;&gt;Ng2CompleterModule -->
<g id="edge8" class="edge">
<title>CompleterListItemCmp&#45;&gt;Ng2CompleterModule</title>
<path fill="none" stroke="#000000" d="M1151,-187.1061C1151,-187.1061 1151,-205.991 1151,-205.991"/>
<polygon fill="#000000" stroke="#000000" points="1147.5001,-205.9909 1151,-215.991 1154.5001,-205.991 1147.5001,-205.9909"/>
</g>
<!-- CtrCompleter -->
<g id="node10" class="node">
<title>CtrCompleter</title>
<polygon fill="#ffffb3" stroke="#000000" points="1058.486,-187 965.514,-187 965.514,-151 1058.486,-151 1058.486,-187"/>
<text text-anchor="middle" x="1012" y="-164.8" font-family="Times,serif" font-size="14.00" fill="#000000">CtrCompleter</text>
</g>
<!-- CtrCompleter&#45;&gt;Ng2CompleterModule -->
<g id="edge9" class="edge">
<title>CtrCompleter&#45;&gt;Ng2CompleterModule</title>
<path fill="none" stroke="#000000" d="M1022.9311,-187.1243C1022.9311,-201.7832 1022.9311,-220 1022.9311,-220 1022.9311,-220 1069.4768,-220 1069.4768,-220"/>
<polygon fill="#000000" stroke="#000000" points="1069.4768,-223.5001 1079.4768,-220 1069.4767,-216.5001 1069.4768,-223.5001"/>
</g>
<!-- CtrDropdown -->
<g id="node11" class="node">
<title>CtrDropdown</title>
<polygon fill="#ffffb3" stroke="#000000" points="947.7619,-187 854.2381,-187 854.2381,-151 947.7619,-151 947.7619,-187"/>
<text text-anchor="middle" x="901" y="-164.8" font-family="Times,serif" font-size="14.00" fill="#000000">CtrDropdown</text>
</g>
<!-- CtrDropdown&#45;&gt;Ng2CompleterModule -->
<g id="edge10" class="edge">
<title>CtrDropdown&#45;&gt;Ng2CompleterModule</title>
<path fill="none" stroke="#000000" d="M925.2057,-187.0091C925.2057,-203.0494 925.2057,-224 925.2057,-224 925.2057,-224 1069.5573,-224 1069.5573,-224"/>
<polygon fill="#000000" stroke="#000000" points="1069.5573,-227.5001 1079.5573,-224 1069.5572,-220.5001 1069.5573,-227.5001"/>
</g>
<!-- CtrInput -->
<g id="node12" class="node">
<title>CtrInput</title>
<polygon fill="#ffffb3" stroke="#000000" points="1579.9405,-187 1516.0595,-187 1516.0595,-151 1579.9405,-151 1579.9405,-187"/>
<text text-anchor="middle" x="1548" y="-164.8" font-family="Times,serif" font-size="14.00" fill="#000000">CtrInput</text>
</g>
<!-- CtrInput&#45;&gt;Ng2CompleterModule -->
<g id="edge11" class="edge">
<title>CtrInput&#45;&gt;Ng2CompleterModule</title>
<path fill="none" stroke="#000000" d="M1536.4922,-187.1686C1536.4922,-208.498 1536.4922,-241 1536.4922,-241 1536.4922,-241 1232.6047,-241 1232.6047,-241"/>
<polygon fill="#000000" stroke="#000000" points="1232.6047,-237.5001 1222.6047,-241 1232.6046,-244.5001 1232.6047,-237.5001"/>
</g>
<!-- CtrList -->
<g id="node13" class="node">
<title>CtrList</title>
<polygon fill="#ffffb3" stroke="#000000" points="1497.6672,-187 1442.3328,-187 1442.3328,-151 1497.6672,-151 1497.6672,-187"/>
<text text-anchor="middle" x="1470" y="-164.8" font-family="Times,serif" font-size="14.00" fill="#000000">CtrList</text>
</g>
<!-- CtrList&#45;&gt;Ng2CompleterModule -->
<g id="edge12" class="edge">
<title>CtrList&#45;&gt;Ng2CompleterModule</title>
<path fill="none" stroke="#000000" d="M1468.5398,-187.0267C1468.5398,-207.7672 1468.5398,-239 1468.5398,-239 1468.5398,-239 1232.2621,-239 1232.2621,-239"/>
<polygon fill="#000000" stroke="#000000" points="1232.2622,-235.5001 1222.2621,-239 1232.2621,-242.5001 1232.2622,-235.5001"/>
</g>
<!-- CtrRow -->
<g id="node14" class="node">
<title>CtrRow</title>
<polygon fill="#ffffb3" stroke="#000000" points="1424.3319,-187 1363.6681,-187 1363.6681,-151 1424.3319,-151 1424.3319,-187"/>
<text text-anchor="middle" x="1394" y="-164.8" font-family="Times,serif" font-size="14.00" fill="#000000">CtrRow</text>
</g>
<!-- CtrRow&#45;&gt;Ng2CompleterModule -->
<g id="edge13" class="edge">
<title>CtrRow&#45;&gt;Ng2CompleterModule</title>
<path fill="none" stroke="#000000" d="M1379.8587,-187.2228C1379.8587,-207.3652 1379.8587,-237 1379.8587,-237 1379.8587,-237 1232.4709,-237 1232.4709,-237"/>
<polygon fill="#000000" stroke="#000000" points="1232.471,-233.5001 1222.4709,-237 1232.4709,-240.5001 1232.471,-233.5001"/>
</g>
<!-- CompleterCmp -->
<g id="node15" class="node">
<title>CompleterCmp</title>
<polygon fill="#ffffb3" stroke="#000000" points="1346.3259,-187 1243.6741,-187 1243.6741,-151 1346.3259,-151 1346.3259,-187"/>
<text text-anchor="middle" x="1295" y="-164.8" font-family="Times,serif" font-size="14.00" fill="#000000">CompleterCmp</text>
</g>
<!-- CompleterCmp&#45;&gt;Ng2CompleterModule -->
<g id="edge14" class="edge">
<title>CompleterCmp&#45;&gt;Ng2CompleterModule</title>
<path fill="none" stroke="#000000" d="M1295,-187.1061C1295,-206.3391 1295,-234 1295,-234 1295,-234 1232.5781,-234 1232.5781,-234"/>
<polygon fill="#000000" stroke="#000000" points="1232.5782,-230.5001 1222.5781,-234 1232.5781,-237.5001 1232.5782,-230.5001"/>
</g>
<!-- CompleterCmp  -->
<g id="node19" class="node">
<title>CompleterCmp </title>
<polygon fill="#fb8072" stroke="#000000" points="1494.8255,-317 1389.1745,-317 1389.1745,-281 1494.8255,-281 1494.8255,-317"/>
<text text-anchor="middle" x="1442" y="-294.8" font-family="Times,serif" font-size="14.00" fill="#000000">CompleterCmp </text>
</g>
<!-- Ng2CompleterModule&#45;&gt;CompleterCmp  -->
<g id="edge19" class="edge">
<title>Ng2CompleterModule&#45;&gt;CompleterCmp </title>
<path fill="none" stroke="#000000" stroke-dasharray="5,2" d="M1222.5461,-250C1298.1694,-250 1406.6264,-250 1406.6264,-250 1406.6264,-250 1406.6264,-270.7542 1406.6264,-270.7542"/>
<polygon fill="#000000" stroke="#000000" points="1403.1265,-270.7542 1406.6264,-280.7542 1410.1265,-270.7542 1403.1265,-270.7542"/>
</g>
<!-- CompleterListItemCmp  -->
<g id="node20" class="node">
<title>CompleterListItemCmp </title>
<polygon fill="#fb8072" stroke="#000000" points="1370.7604,-317 1217.2396,-317 1217.2396,-281 1370.7604,-281 1370.7604,-317"/>
<text text-anchor="middle" x="1294" y="-294.8" font-family="Times,serif" font-size="14.00" fill="#000000">CompleterListItemCmp </text>
</g>
<!-- Ng2CompleterModule&#45;&gt;CompleterListItemCmp  -->
<g id="edge20" class="edge">
<title>Ng2CompleterModule&#45;&gt;CompleterListItemCmp </title>
<path fill="none" stroke="#000000" stroke-dasharray="5,2" d="M1208.3065,-252.1061C1208.3065,-271.3391 1208.3065,-299 1208.3065,-299 1208.3065,-299 1209.1912,-299 1209.1912,-299"/>
<polygon fill="#000000" stroke="#000000" points="1207.1544,-302.5001 1217.1544,-299 1207.1544,-295.5001 1207.1544,-302.5001"/>
</g>
<!-- CtrCompleter  -->
<g id="node21" class="node">
<title>CtrCompleter </title>
<polygon fill="#fb8072" stroke="#000000" points="1199.4872,-317 1102.5128,-317 1102.5128,-281 1199.4872,-281 1199.4872,-317"/>
<text text-anchor="middle" x="1151" y="-294.8" font-family="Times,serif" font-size="14.00" fill="#000000">CtrCompleter </text>
</g>
<!-- Ng2CompleterModule&#45;&gt;CtrCompleter  -->
<g id="edge21" class="edge">
<title>Ng2CompleterModule&#45;&gt;CtrCompleter </title>
<path fill="none" stroke="#000000" stroke-dasharray="5,2" d="M1151,-252.1061C1151,-252.1061 1151,-270.991 1151,-270.991"/>
<polygon fill="#000000" stroke="#000000" points="1147.5001,-270.9909 1151,-280.991 1154.5001,-270.991 1147.5001,-270.9909"/>
</g>
<!-- CtrDropdown  -->
<g id="node22" class="node">
<title>CtrDropdown </title>
<polygon fill="#fb8072" stroke="#000000" points="1084.762,-317 987.238,-317 987.238,-281 1084.762,-281 1084.762,-317"/>
<text text-anchor="middle" x="1036" y="-294.8" font-family="Times,serif" font-size="14.00" fill="#000000">CtrDropdown </text>
</g>
<!-- Ng2CompleterModule&#45;&gt;CtrDropdown  -->
<g id="edge22" class="edge">
<title>Ng2CompleterModule&#45;&gt;CtrDropdown </title>
<path fill="none" stroke="#000000" stroke-dasharray="5,2" d="M1093.6939,-252.1061C1093.6939,-271.3391 1093.6939,-299 1093.6939,-299 1093.6939,-299 1092.7924,-299 1092.7924,-299"/>
<polygon fill="#000000" stroke="#000000" points="1094.6793,-295.5001 1084.6792,-299 1094.6792,-302.5001 1094.6793,-295.5001"/>
</g>
<!-- CtrInput  -->
<g id="node23" class="node">
<title>CtrInput </title>
<polygon fill="#fb8072" stroke="#000000" points="969.439,-317 902.561,-317 902.561,-281 969.439,-281 969.439,-317"/>
<text text-anchor="middle" x="936" y="-294.8" font-family="Times,serif" font-size="14.00" fill="#000000">CtrInput </text>
</g>
<!-- Ng2CompleterModule&#45;&gt;CtrInput  -->
<g id="edge23" class="edge">
<title>Ng2CompleterModule&#45;&gt;CtrInput </title>
<path fill="none" stroke="#000000" stroke-dasharray="5,2" d="M1079.4754,-248C1024.0724,-248 956.6939,-248 956.6939,-248 956.6939,-248 956.6939,-270.8757 956.6939,-270.8757"/>
<polygon fill="#000000" stroke="#000000" points="953.194,-270.8757 956.6939,-280.8757 960.194,-270.8757 953.194,-270.8757"/>
</g>
<!-- CtrList  -->
<g id="node24" class="node">
<title>CtrList </title>
<polygon fill="#fb8072" stroke="#000000" points="884.6664,-317 825.3336,-317 825.3336,-281 884.6664,-281 884.6664,-317"/>
<text text-anchor="middle" x="855" y="-294.8" font-family="Times,serif" font-size="14.00" fill="#000000">CtrList </text>
</g>
<!-- Ng2CompleterModule&#45;&gt;CtrList  -->
<g id="edge24" class="edge">
<title>Ng2CompleterModule&#45;&gt;CtrList </title>
<path fill="none" stroke="#000000" stroke-dasharray="5,2" d="M1079.564,-244C996.1226,-244 869.3512,-244 869.3512,-244 869.3512,-244 869.3512,-270.9909 869.3512,-270.9909"/>
<polygon fill="#000000" stroke="#000000" points="865.8512,-270.9909 869.3512,-280.9909 872.8512,-270.991 865.8512,-270.9909"/>
</g>
<!-- CtrRow  -->
<g id="node25" class="node">
<title>CtrRow </title>
<polygon fill="#fb8072" stroke="#000000" points="1576.8312,-317 1513.1688,-317 1513.1688,-281 1576.8312,-281 1576.8312,-317"/>
<text text-anchor="middle" x="1545" y="-294.8" font-family="Times,serif" font-size="14.00" fill="#000000">CtrRow </text>
</g>
<!-- Ng2CompleterModule&#45;&gt;CtrRow  -->
<g id="edge25" class="edge">
<title>Ng2CompleterModule&#45;&gt;CtrRow </title>
<path fill="none" stroke="#000000" stroke-dasharray="5,2" d="M1222.5978,-248C1339.0673,-248 1556.7038,-248 1556.7038,-248 1556.7038,-248 1556.7038,-270.8757 1556.7038,-270.8757"/>
<polygon fill="#000000" stroke="#000000" points="1553.2039,-270.8757 1556.7038,-280.8757 1560.2039,-270.8757 1553.2039,-270.8757"/>
</g>
<!-- COMPLETER_CONTROL_VALUE_ACCESSOR -->
<g id="node17" class="node">
<title>COMPLETER_CONTROL_VALUE_ACCESSOR</title>
<ellipse fill="#fdb462" stroke="#000000" cx="1295" cy="-104" rx="211.2588" ry="18"/>
<text text-anchor="middle" x="1295" y="-99.8" font-family="Times,serif" font-size="14.00" fill="#000000">COMPLETER_CONTROL_VALUE_ACCESSOR</text>
</g>
<!-- COMPLETER_CONTROL_VALUE_ACCESSOR&#45;&gt;CompleterCmp -->
<g id="edge15" class="edge">
<title>COMPLETER_CONTROL_VALUE_ACCESSOR&#45;&gt;CompleterCmp</title>
<path fill="none" stroke="#000000" d="M1295,-122.1061C1295,-122.1061 1295,-140.991 1295,-140.991"/>
<polygon fill="#000000" stroke="#000000" points="1291.5001,-140.9909 1295,-150.991 1298.5001,-140.991 1291.5001,-140.9909"/>
</g>
<!-- CommonModule -->
<g id="node18" class="node">
<title>CommonModule</title>
<polygon fill="#8dd3c7" stroke="#000000" points="829.6681,-187 826.6681,-191 805.6681,-191 802.6681,-187 718.3319,-187 718.3319,-151 829.6681,-151 829.6681,-187"/>
<text text-anchor="middle" x="774" y="-164.8" font-family="Times,serif" font-size="14.00" fill="#000000">CommonModule</text>
</g>
<!-- CommonModule&#45;&gt;Ng2CompleterModule -->
<g id="edge16" class="edge">
<title>CommonModule&#45;&gt;Ng2CompleterModule</title>
<path fill="none" stroke="#000000" d="M771.7915,-187.0225C771.7915,-204.3734 771.7915,-228 771.7915,-228 771.7915,-228 1069.6738,-228 1069.6738,-228"/>
<polygon fill="#000000" stroke="#000000" points="1069.6738,-231.5001 1079.6738,-228 1069.6738,-224.5001 1069.6738,-231.5001"/>
</g>
<!-- CompleterService -->
<g id="node26" class="node">
<title>CompleterService</title>
<ellipse fill="#fdb462" stroke="#000000" cx="351" cy="-169" rx="80.5142" ry="18"/>
<text text-anchor="middle" x="351" y="-164.8" font-family="Times,serif" font-size="14.00" fill="#000000">CompleterService</text>
</g>
<!-- CompleterService&#45;&gt;Ng2CompleterModule -->
<g id="edge26" class="edge">
<title>CompleterService&#45;&gt;Ng2CompleterModule</title>
<path fill="none" stroke="#000000" d="M351,-187.308C351,-207.1455 351,-236 351,-236 351,-236 1069.6537,-236 1069.6537,-236"/>
<polygon fill="#000000" stroke="#000000" points="1069.6537,-239.5001 1079.6537,-236 1069.6536,-232.5001 1069.6537,-239.5001"/>
</g>
<!-- LocalDataFactoryProvider -->
<g id="node27" class="node">
<title>LocalDataFactoryProvider</title>
<ellipse fill="#fdb462" stroke="#000000" cx="138" cy="-169" rx="114.0016" ry="18"/>
<text text-anchor="middle" x="138" y="-164.8" font-family="Times,serif" font-size="14.00" fill="#000000">LocalDataFactoryProvider</text>
</g>
<!-- LocalDataFactoryProvider&#45;&gt;Ng2CompleterModule -->
<g id="edge27" class="edge">
<title>LocalDataFactoryProvider&#45;&gt;Ng2CompleterModule</title>
<path fill="none" stroke="#000000" d="M138,-187.2843C138,-208.3211 138,-240 138,-240 138,-240 1069.3642,-240 1069.3642,-240"/>
<polygon fill="#000000" stroke="#000000" points="1069.3642,-243.5001 1079.3642,-240 1069.3642,-236.5001 1069.3642,-243.5001"/>
</g>
<!-- RemoteDataFactoryProvider -->
<g id="node28" class="node">
<title>RemoteDataFactoryProvider</title>
<ellipse fill="#fdb462" stroke="#000000" cx="572" cy="-169" rx="122.1074" ry="18"/>
<text text-anchor="middle" x="572" y="-164.8" font-family="Times,serif" font-size="14.00" fill="#000000">RemoteDataFactoryProvider</text>
</g>
<!-- RemoteDataFactoryProvider&#45;&gt;Ng2CompleterModule -->
<g id="edge28" class="edge">
<title>RemoteDataFactoryProvider&#45;&gt;Ng2CompleterModule</title>
<path fill="none" stroke="#000000" d="M572,-187.2222C572,-205.8285 572,-232 572,-232 572,-232 1069.7131,-232 1069.7131,-232"/>
<polygon fill="#000000" stroke="#000000" points="1069.7131,-235.5001 1079.7131,-232 1069.7131,-228.5001 1069.7131,-235.5001"/>
</g>
<!-- HomeComponent -->
<g id="node29" class="node">
<title>HomeComponent</title>
<polygon fill="#ffffb3" stroke="#000000" points="3602.5451,-187 3487.4549,-187 3487.4549,-151 3602.5451,-151 3602.5451,-187"/>
<text text-anchor="middle" x="3545" y="-164.8" font-family="Times,serif" font-size="14.00" fill="#000000">HomeComponent</text>
</g>
<!-- HomeComponent&#45;&gt;AppModule -->
<g id="edge29" class="edge">
<title>HomeComponent&#45;&gt;AppModule</title>
<path fill="none" stroke="#000000" d="M3545,-187.2921C3545,-209.2057 3545,-243 3545,-243 3545,-243 2532.7101,-243 2532.7101,-243"/>
<polygon fill="#000000" stroke="#000000" points="2532.7101,-239.5001 2522.7101,-243 2532.71,-246.5001 2532.7101,-239.5001"/>
</g>
<!-- CoreHeaderComponent -->
<g id="node30" class="node">
<title>CoreHeaderComponent</title>
<polygon fill="#ffffb3" stroke="#000000" points="3469.4552,-187 3320.5448,-187 3320.5448,-151 3469.4552,-151 3469.4552,-187"/>
<text text-anchor="middle" x="3395" y="-164.8" font-family="Times,serif" font-size="14.00" fill="#000000">CoreHeaderComponent</text>
</g>
<!-- CoreHeaderComponent&#45;&gt;AppModule -->
<g id="edge30" class="edge">
<title>CoreHeaderComponent&#45;&gt;AppModule</title>
<path fill="none" stroke="#000000" d="M3395,-187.0267C3395,-207.7672 3395,-239 3395,-239 3395,-239 2532.9489,-239 2532.9489,-239"/>
<polygon fill="#000000" stroke="#000000" points="2532.9489,-235.5001 2522.9489,-239 2532.9489,-242.5001 2532.9489,-235.5001"/>
</g>
<!-- CoreFooterComponent -->
<g id="node31" class="node">
<title>CoreFooterComponent</title>
<polygon fill="#ffffb3" stroke="#000000" points="3302.5926,-187 3157.4074,-187 3157.4074,-151 3302.5926,-151 3302.5926,-187"/>
<text text-anchor="middle" x="3230" y="-164.8" font-family="Times,serif" font-size="14.00" fill="#000000">CoreFooterComponent</text>
</g>
<!-- CoreFooterComponent&#45;&gt;AppModule -->
<g id="edge31" class="edge">
<title>CoreFooterComponent&#45;&gt;AppModule</title>
<path fill="none" stroke="#000000" d="M3230,-187.1061C3230,-206.3391 3230,-234 3230,-234 3230,-234 2532.8744,-234 2532.8744,-234"/>
<polygon fill="#000000" stroke="#000000" points="2532.8745,-230.5001 2522.8744,-234 2532.8744,-237.5001 2532.8745,-230.5001"/>
</g>
<!-- GeneralAppComponent -->
<g id="node32" class="node">
<title>GeneralAppComponent</title>
<polygon fill="#ffffb3" stroke="#000000" points="3139.7408,-187 2990.2592,-187 2990.2592,-151 3139.7408,-151 3139.7408,-187"/>
<text text-anchor="middle" x="3065" y="-164.8" font-family="Times,serif" font-size="14.00" fill="#000000">GeneralAppComponent</text>
</g>
<!-- GeneralAppComponent&#45;&gt;AppModule -->
<g id="edge32" class="edge">
<title>GeneralAppComponent&#45;&gt;AppModule</title>
<path fill="none" stroke="#000000" d="M3065,-187.302C3065,-205.2699 3065,-230 3065,-230 3065,-230 2532.9998,-230 2532.9998,-230"/>
<polygon fill="#000000" stroke="#000000" points="2532.9999,-226.5001 2522.9998,-230 2532.9998,-233.5001 2532.9999,-226.5001"/>
</g>
<!-- MspModule -->
<g id="node33" class="node">
<title>MspModule</title>
<polygon fill="#8dd3c7" stroke="#000000" points="1920.4401,-187 1917.4401,-191 1896.4401,-191 1893.4401,-187 1835.5599,-187 1835.5599,-151 1920.4401,-151 1920.4401,-187"/>
<text text-anchor="middle" x="1878" y="-164.8" font-family="Times,serif" font-size="14.00" fill="#000000">MspModule</text>
</g>
<!-- MspModule&#45;&gt;AppModule -->
<g id="edge34" class="edge">
<title>MspModule&#45;&gt;AppModule</title>
<path fill="none" stroke="#000000" d="M1878,-187.027C1878,-203.3976 1878,-225 1878,-225 1878,-225 2429.077,-225 2429.077,-225"/>
<polygon fill="#000000" stroke="#000000" points="2429.077,-228.5001 2439.077,-225 2429.0769,-221.5001 2429.077,-228.5001"/>
</g>
<!-- RouterModule.forRoot(args) -->
<g id="node34" class="node">
<title>RouterModule.forRoot(args)</title>
<polygon fill="#8dd3c7" stroke="#000000" points="2240.8419,-187 2237.8419,-191 2216.8419,-191 2213.8419,-187 2063.1581,-187 2063.1581,-151 2240.8419,-151 2240.8419,-187"/>
<text text-anchor="middle" x="2152" y="-164.8" font-family="Times,serif" font-size="14.00" fill="#000000">RouterModule.forRoot(args)</text>
</g>
<!-- RouterModule.forRoot(args)&#45;&gt;AppModule -->
<g id="edge35" class="edge">
<title>RouterModule.forRoot(args)&#45;&gt;AppModule</title>
<path fill="none" stroke="#000000" d="M2211.2216,-187.0511C2211.2216,-201.373 2211.2216,-219 2211.2216,-219 2211.2216,-219 2429.1431,-219 2429.1431,-219"/>
<polygon fill="#000000" stroke="#000000" points="2429.1432,-222.5001 2439.1431,-219 2429.1431,-215.5001 2429.1432,-222.5001"/>
</g>
<!-- { provide: &#39;appConstants&#39;, useValue: appConstants } -->
<g id="node38" class="node">
<title>{ provide: &#39;appConstants&#39;, useValue: appConstants }</title>
<ellipse fill="#fdb462" stroke="#000000" cx="2481" cy="-169" rx="216.1668" ry="18"/>
<text text-anchor="middle" x="2481" y="-164.8" font-family="Times,serif" font-size="14.00" fill="#000000">{ provide: &#39;appConstants&#39;, useValue: appConstants }</text>
</g>
<!-- { provide: &#39;appConstants&#39;, useValue: appConstants }&#45;&gt;AppModule -->
<g id="edge39" class="edge">
<title>{ provide: &#39;appConstants&#39;, useValue: appConstants }&#45;&gt;AppModule</title>
<path fill="none" stroke="#000000" d="M2481,-187.1061C2481,-187.1061 2481,-205.991 2481,-205.991"/>
<polygon fill="#000000" stroke="#000000" points="2477.5001,-205.9909 2481,-215.991 2484.5001,-205.991 2477.5001,-205.9909"/>
</g>
</g>
</svg>
