<svg version="1.1" id="Capa_1" xmlns="http://www.w3.org/2000/svg" xmlns:xlink="http://www.w3.org/1999/xlink" x="0px" y="0px"
	 viewBox="0 0 451.325 451.325" style="enable-background:new 0 0 451.325 451.325;" xml:space="preserve">
<g>
	<path d="M70.244,257.194c0.94,0.39,1.913,0.574,2.871,0.574c2.941,0,5.733-1.742,6.931-4.628l9.938-23.958h37.443l10.237,24.025
		c1.623,3.811,6.028,5.584,9.84,3.96c3.811-1.624,5.583-6.029,3.959-9.84l-12.151-28.517c-0.014-0.033-0.027-0.065-0.042-0.098
		l-24.009-56.347c-1.179-2.767-3.895-4.56-6.899-4.56c-0.012,0-0.024,0-0.036,0c-3.019,0.015-5.734,1.838-6.892,4.626
		l-23.355,56.304c-0.009,0.022-0.018,0.044-0.027,0.065L66.19,247.392C64.604,251.218,66.419,255.606,70.244,257.194z
		 M108.454,184.655l12.581,29.526H96.206L108.454,184.655z"/>
	<path d="M108.801,97.157c-4.143,0.021-7.482,3.397-7.461,7.539c0.021,4.129,3.375,7.461,7.499,7.461c0.014,0,0.027,0,0.04,0
		c25.812-0.126,49.872,9.746,67.672,27.821c17.362,17.632,26.643,41.023,26.131,65.864c-0.642,31.111-14.961,58.957-39.285,76.397
		c-0.265,0.19-0.514,0.394-0.747,0.612l-1.063,0.729c-0.266,0.183-0.53,0.366-0.874,0.596l-70.624,48.281v-28.678
		c0-3.395-2.28-6.366-5.559-7.245C43.592,285.566,15,248.335,15,205.997c0-32.964,16.875-62.908,45.14-80.101
		c3.539-2.152,4.663-6.766,2.511-10.305c-2.153-3.54-6.767-4.664-10.306-2.51C19.568,133.017,0,167.752,0,205.997
		c0,47.175,30.594,88.883,75.088,103.378v37.294c0,2.782,1.54,5.335,4,6.633c1.099,0.58,2.301,0.867,3.499,0.867
		c1.484,0,2.963-0.44,4.233-1.309l82.281-56.25c0.336-0.224,0.668-0.453,1.001-0.682l2.04-1.396
		c0.382-0.261,0.733-0.554,1.054-0.871c27.559-20.262,43.751-52.079,44.481-87.509c0.597-28.92-10.214-56.159-30.439-76.698
		C166.576,108.47,138.732,97.038,108.801,97.157z"/>
	<path d="M342.485,97.157c-60.015,0-108.84,48.825-108.84,108.84c0,34.492,16.604,67.163,44.483,87.664
		c0.32,0.318,0.673,0.611,1.056,0.872l2.001,1.37c0.344,0.237,0.686,0.473,0.963,0.657l82.356,56.302
		c1.271,0.869,2.749,1.309,4.233,1.309c1.198,0,2.4-0.287,3.499-0.867c2.46-1.298,4-3.851,4-6.633v-42.89c0-4.142-3.357-7.5-7.5-7.5
		s-7.5,3.358-7.5,7.5v28.678l-70.694-48.329c-0.282-0.188-0.56-0.38-0.838-0.572l-1.03-0.706c-0.233-0.217-0.482-0.421-0.746-0.611
		c-24.598-17.637-39.283-46.139-39.283-76.243c0-51.744,42.097-93.84,93.84-93.84s93.84,42.096,93.84,93.84
		c0,26.178-10.537,50.458-29.67,68.366c-3.024,2.831-3.182,7.577-0.351,10.601c2.829,3.023,7.576,3.182,10.601,0.351
		c21.874-20.473,34.42-49.383,34.42-79.317C451.325,145.982,402.5,97.157,342.485,97.157z"/>
	<path d="M291.663,239.163c-4.143,0-7.5,3.358-7.5,7.5s3.357,7.5,7.5,7.5h63.717c4.143,0,7.5-3.358,7.5-7.5s-3.357-7.5-7.5-7.5
		h-24.358v-6.798h24.358c4.143,0,7.5-3.358,7.5-7.5s-3.357-7.5-7.5-7.5h-24.358v-15.182h12.517l2.417,4.834
		c1.313,2.628,3.963,4.147,6.714,4.147c1.127,0,2.271-0.255,3.349-0.793c3.704-1.852,5.206-6.357,3.354-10.062l-10-20
		c-1.851-3.705-6.355-5.207-10.063-3.354c-3.704,1.852-5.206,6.357-3.354,10.062l0.083,0.166h-29.334l11.313-18.535h39.04
		c4.143,0,7.5-3.358,7.5-7.5s-3.357-7.5-7.5-7.5h-62.878c-4.143,0-7.5,3.358-7.5,7.5s3.357,7.5,7.5,7.5h6.266l-13.506,22.128
		c-1.413,2.315-1.467,5.212-0.139,7.578c1.327,2.365,3.828,3.83,6.54,3.83h22.682v15.182h-24.358c-4.143,0-7.5,3.358-7.5,7.5
		s3.357,7.5,7.5,7.5h24.358v6.798H291.663z"/>
	<path d="M374.663,238.234c4.143,0,7.5-3.358,7.5-7.5V170.37c0-4.142-3.357-7.5-7.5-7.5s-7.5,3.358-7.5,7.5v60.364
		C367.163,234.876,370.521,238.234,374.663,238.234z"/>
	<path d="M367.663,275.163h0.862c20.202,0,36.638-16.436,36.638-36.638v-76.862c0-4.142-3.357-7.5-7.5-7.5s-7.5,3.358-7.5,7.5
		v76.862c0,11.931-9.707,21.638-21.638,21.638h-0.862c-4.143,0-7.5,3.358-7.5,7.5S363.521,275.163,367.663,275.163z"/>
</g>
<g>
</g>
<g>
</g>
<g>
</g>
<g>
</g>
<g>
</g>
<g>
</g>
<g>
</g>
<g>
</g>
<g>
</g>
<g>
</g>
<g>
</g>
<g>
</g>
<g>
</g>
<g>
</g>
<g>
</g>
</svg>
