<svg version="1.1" id="Capa_1" xmlns="http://www.w3.org/2000/svg" xmlns:xlink="http://www.w3.org/1999/xlink" x="0px" y="0px"
	 viewBox="0 0 512 512" style="enable-background:new 0 0 512 512;" xml:space="preserve"><g><g><path d="M504.488,243.003c-4.646-2.677-10.37-2.67-15.012,0.02L420,283.299V271c0-23.443-18.022-42.747-40.938-44.808C404.14,204.182,420,171.91,420,136c0-66.168-53.832-120-120-120c-49.466,0-92.033,30.087-110.373,72.92C170.497,62.913,139.689,46,105,46C47.103,46,0,93.103,0,151c0,30.168,12.793,57.4,33.234,76.57C14.111,232.757,0,250.257,0,271v180c0,24.813,20.187,45,45,45h330c24.813,0,45-20.187,45-45v-12.299l69.478,40.276c4.638,2.69,10.365,2.697,15.011,0.02C509.136,476.319,512,471.364,512,466V256C512,250.636,509.136,245.681,504.488,243.003z M300,46c49.626,0,90,40.374,90,90s-40.374,90-90,90c-49.626,0-90-40.374-90-90C210,86.374,250.374,46,300,46z M198.16,199.397c6.204,9.931,13.818,18.892,22.561,26.603h-42.317C186.309,218.262,192.999,209.29,198.16,199.397z M30,151c0-41.355,33.645-75,75-75s75,33.645,75,75s-33.645,75-75,75S30,192.355,30,151z M390,451c0,8.271-6.729,15-15,15H45c-8.271,0-15-6.729-15-15V271c0-8.271,6.729-15,15-15h330c8.271,0,15,6.729,15,15V451z M482,439.967l-62-35.941v-86.049l62-35.943V439.967z"/></g></g><g><g><path d="M105,106c-24.393,0-45,20.607-45,45s20.607,45,45,45s45-20.607,45-45S129.393,106,105,106z M105,166c-7.99,0-15-7.009-15-15c0-7.991,7.01-15,15-15s15,7.009,15,15C120,158.991,112.99,166,105,166z"/></g></g><g><g><path d="M300,76c-33.084,0-60,26.916-60,60s26.916,60,60,60s60-26.916,60-60S333.084,76,300,76z M300,166c-16.542,0-30-13.458-30-30s13.458-30,30-30s30,13.458,30,30S316.542,166,300,166z"/></g></g><g><g><path d="M225,286H75c-8.284,0-15,6.716-15,15v60c0,8.284,6.716,15,15,15h150c8.284,0,15-6.716,15-15v-60C240,292.716,233.284,286,225,286z M210,346H90v-30h120V346z"/></g></g><g><g><path d="M345,376c-8.284,0-15,6.716-15,15v30c0,8.284,6.716,15,15,15s15-6.716,15-15v-30C360,382.716,353.284,376,345,376z"/></g></g><g><g><path d="M285,376c-8.284,0-15,6.716-15,15v30c0,8.284,6.716,15,15,15s15-6.716,15-15v-30C300,382.716,293.284,376,285,376z"/></g></g><g></g><g></g><g></g><g></g><g></g><g></g><g></g><g></g><g></g><g></g><g></g><g></g><g></g><g></g><g></g>
</svg>
